<svg xmlns="http://www.w3.org/2000/svg" width="895.1" height="871.4" viewBox="0 0 895.1 871.4">
  <path id="git" d="M511.6,76.3C264.3,76.2,64,276.4,64,523.5,64,718.9,189.3,885,363.8,946c23.5,5.9,19.9-10.8,19.9-22.2V846.3C248,862.2,242.5,772.4,233.4,757.4,215,726,171.5,718,184.5,703c30.9-15.9,62.4,4,98.9,57.9,26.4,39.1,77.9,32.5,104,26a126.138,126.138,0,0,1,34.7-60.8c-140.6-25.2-199.2-111-199.2-213,0-49.5,16.3-95,48.3-131.7-20.4-60.5,1.9-112.3,4.9-120,58.1-5.2,118.5,41.6,123.2,45.3,33-8.9,70.7-13.6,112.9-13.6,42.4,0,80.2,4.9,113.5,13.9C637,298.4,693,258.2,747,263.1c2.9,7.7,24.7,58.3,5.5,118,32.4,36.8,48.9,82.7,48.9,132.3,0,102.2-59,188.1-200,212.9a127.5,127.5,0,0,1,38.1,91V929.8c.8,9,0,17.9,15,17.9,177.1-59.7,304.6-227,304.6-424.1,0-247.2-200.4-447.3-447.5-447.3Z" transform="translate(-64 -76.3)" fill="#706fd3"/>
</svg>
